Coordinates
version=1
nRows=6
nColumns=36
inDegrees=yes

Units are S.I. units (second, meters, Newtons, ...)
If the header above contains a line with 'inDegrees', this indicates whether rotational values are in degrees (yes) or radians (no).

endheader
time	pelvis_tilt	pelvis_list	pelvis_rotation	pelvis_tx	pelvis_ty	pelvis_tz	hip_flexion_r	hip_adduction_r	hip_rotation_r	knee_angle_r	knee_angle_r_beta	ankle_angle_r	subtalar_angle_r	mtp_angle_r	hip_flexion_l	hip_adduction_l	hip_rotation_l	knee_angle_l	knee_angle_l_beta	ankle_angle_l	subtalar_angle_l	mtp_angle_l	lumbar_extension	lumbar_bending	lumbar_rotation	arm_flex_r	arm_add_r	arm_rot_r	elbow_flex_r	pro_sup_r	arm_flex_l	arm_add_l	arm_rot_l	elbow_flex_l	pro_sup_l
      0.00000000	      3.85813674	     -3.50283730	     -7.27933568	     -0.92313831	      1.26258598	     -0.10768054	     -1.41191709	      2.77151571	      1.38434424	      9.76384642	      0.17041127	      5.56618736	    -16.44952034	     -6.09421848	     -8.61685122	     -2.78989021	      1.16574702	      1.56151096	      0.02725351	      8.01222918	     -9.89674201	     -6.09421848	    -13.78989815	      2.72659137	     -5.55970605	      9.65859775	     -8.48077796	     22.20972981	     20.38934993	     72.20604954	      8.80590770	     -8.26252450	     23.90053319	     22.61532736	     64.43787331
      0.00416670	      2.27810883	     -3.04871840	     -6.89998101	     -0.91921663	      1.26282114	     -0.10945543	      0.58567114	      2.78532199	      2.62712588	     11.05253066	      0.19290305	      8.85274849	    -15.23968211	     -6.73334522	     -6.48384962	     -2.18669666	      2.42109052	      1.87396445	      0.03270685	      8.08493209	     -9.97069697	     -6.73334522	    -11.46004317	      2.62501763	     -6.38789384	      8.71143482	     -7.29048309	     15.29123407	     19.44635394	     78.48711824	      8.41133647	     -7.04922203	     17.37573952	     21.71104035	     68.84194191
      0.00833330	      1.48770491	     -2.32170046	     -6.94834851	     -0.91860063	      1.26298597	     -0.10853679	      1.13646879	      2.15385927	      2.46976087	     10.25862264	      0.17904674	      8.99022415	    -14.85957820	     -7.16594293	     -5.67179334	     -1.56666756	      2.41400115	      1.77327947	      0.03094957	      7.97081087	     -9.91561922	     -7.16594293	    -10.34620986	      1.62239742	     -6.40549549	      8.04081983	     -6.66921333	     12.41418778	     19.73074003	     79.16824569	      8.42863371	     -7.49237501	     17.37269809	     21.63729500	     69.07695416
      0.01250000	      2.04985140	     -2.21017393	     -6.58813270	     -0.91852347	      1.26202496	     -0.10967489	      0.15607510	      1.94295017	      2.41732131	      9.62210809	      0.16793747	      9.30025934	    -14.19159857	     -7.25145526	     -6.52879320	     -1.37939719	      2.96367207	      1.33744814	      0.02334287	      7.69697084	    -10.36915751	     -7.25145526	    -11.04390756	      1.35363619	     -6.61396046	      8.00730064	     -6.49982867	     11.94996421	     19.85957092	     76.90523715	      8.55188910	     -7.86727325	     17.73648820	     21.83617754	     68.01302695
      0.01666670	      2.27582235	     -2.19382775	     -6.34692837	     -0.91708438	      1.26108038	     -0.11014288	     -0.45922138	      1.96406237	      2.87490022	      9.05273509	      0.15800003	      8.92039719	    -14.90081926	     -7.31297437	     -6.95699837	     -1.29979008	      3.25051041	      1.04793958	      0.01829000	      7.94309298	    -10.50414729	     -7.31297437	    -11.38848711	      1.35462767	     -6.58444887	      7.77166988	     -6.62211068	     11.92869580	     20.55125649	     75.55175885	      8.64720155	     -8.17765030	     19.29743642	     22.21730993	     67.55486200
      0.02083330	      2.42202544	     -2.15331458	     -6.05877427	     -0.91700469	      1.26373427	     -0.11069535	     -0.88038206	      1.93338775	      2.95554967	      8.66691458	      0.15126620	      8.73312332	    -15.28415751	     -7.40980175	     -7.12520512	     -1.22884381	      3.74862179	      0.94942608	      0.01657061	      8.09235304	    -10.82696467	     -7.40980175	    -11.57270039	      1.36726782	     -6.63528107	      7.82162105	     -6.77129528	     12.32926708	     20.64325963	     75.09111304	      9.01373648	     -8.40485276	     21.74367367	     21.89011367	     67.06485691
